# xmcd
#
# Track frame offsets:
#	150
#	8667
#	20347
#	33091
#	46166
#	58805
#	69262
#	82551
#	94291
#	102351
#	112808
#	124170
#	138517
#	148409
#	163769
#	179786
#	191050
#	208014
#	224056
#	237033
#
# Disc length: 3362
#
# Revision: 1
# Processed by: cddbd v1.5.1PL0 Copyright (c) Steve Scherf et al.
# Submitted via: EasyCDDAExtractor 4.6.0.1
# Normalized: r0:DSETVAR1
#
DISCID=1c0d2014
DTITLE=Various Artist - Superhits Of Country CD 6
DYEAR=1900
DGENRE=
TTITLE0=Johnny Cash - Guess Things Happen THat Way
TTITLE1=Lynn Anderson - Listen To A Country Song
TTITLE2=Bill Anderson - Po' Folks
TTITLE3=Lorrie Morgan and George Morgan - I'm Completely Satisfied With You
TTITLE4=Porter Wagoner - A Satisfied Mind
TTITLE5=Loretta Lynn - You're Lookin' At Country (Live)
TTITLE6=Johnny Tillotson - Send Me The Pillow That You Dream On
TTITLE7=Patsy Cline - Lonely Street
TTITLE8=Roger Miller - Dang Me
TTITLE9=Loretta Lynn - Out Of My Head And Back In My Bed (Live)
TTITLE10=Boxcar Willie - In The Jailhouse Now
TTITLE11=Nancy Peppers - The Words That Go Unspoken
TTITLE12=Ned Miller - From A Jack To A King
TTITLE13=Billy Jo Spears - Blanket On The Ground
TTITLE14=Alex Harvey - Delta Dawn
TTITLE15=Slim Whitman - The Wayward Wind
TTITLE16=Merle Haggard - Today I Started Loving You Again
TTITLE17=Tammy Wynette - The Wonder You Perform
TTITLE18=Billie Jo Spears - What I've Got In Mind
TTITLE19=Ed Bruce - Mammas, Don't Let Your Babies Grow Up To Be Cowboys
EXTD=
EXTT0=
EXTT1=
EXTT2=
EXTT3=
EXTT4=
EXTT5=
EXTT6=
EXTT7=
EXTT8=
EXTT9=
EXTT10=
EXTT11=
EXTT12=
EXTT13=
EXTT14=
EXTT15=
EXTT16=
EXTT17=
EXTT18=
EXTT19=
PLAYORDER=
